<svg xmlns="http://www.w3.org/2000/svg" xmlns:xlink="http://www.w3.org/1999/xlink" version="1.1" x="0px" y="0px" viewBox="0 0 100 125" style="enable-background:new 0 0 100 100;" xml:space="preserve"><path d="M39.6679688,66.3300781c1.5107422-0.0351562,2.9541016-0.6416016,4.0166016-1.703125  c1.1162109-1.1162109,1.7226562-2.6357422,1.7001953-4.2265625l6.7041016-6.8623047  c1.9560547-0.3847656,3.4501953-1.9150391,3.7910156-3.8789062l10.0869141-10.21875  c1.3876953-0.0205078,2.7099609-0.5703125,3.6855469-1.5458984c1.0263672-1.0263672,1.5761719-2.4169922,1.5449219-3.8740234  l3.4570312-3.5888672c1.1181641-0.0878906,2.1542969-0.5634766,2.9541016-1.3632812  c0.8261719-0.8261719,1.3115234-1.9414062,1.3662109-3.1142578l10.2675781-10.4248047  c1.0214844-1.0683594,1.0019531-2.7880859-0.0429688-3.8330078l-0.9033203-0.9033203  c-1.0439453-1.0458984-2.7626953-1.0664062-3.8447266-0.03125l-10.375,10.2568359  c-1.1855469,0.0458984-2.3144531,0.53125-3.1513672,1.3662109c-0.8183594,0.8193359-1.2929688,1.8818359-1.3642578,3.0302734  l-3.4775391,3.3828125c-1.4892578-0.0742188-2.9257812,0.4853516-3.984375,1.5439453  c-1.0166016,1.0166016-1.5654297,2.3935547-1.5449219,3.8388672l-9.9609375,9.8671875  c-2.1650391,0.2548828-3.9130859,1.9736328-4.2060547,4.1357422L39.84375,54.6113281  c-1.6865234-0.0908203-3.2871094,0.5087891-4.4765625,1.6982422c-1.1425781,1.1416016-1.7480469,2.6914062-1.6992188,4.3134766  L28.5,65.6494141c-2.2978516-0.4013672-4.6845703,0.3369141-6.34375,1.9951172  c-1.6269531,1.6279297-2.3642578,3.890625-2.0283203,6.1464844l-1.8173828,1.7685547l-7.6796875,3.0224609  c-0.3134766,0.1240234-0.5439453,0.3964844-0.6132812,0.7265625c-0.0683594,0.3300781,0.0341797,0.6728516,0.2724609,0.9111328  l9.484375,9.484375c0.1894531,0.1894531,0.4443359,0.2929688,0.7070312,0.2929688c0.0625,0,0.125-0.0058594,0.1865234-0.0175781  c0.3251953-0.0615234,0.5986328-0.2802734,0.7304688-0.5839844l3.2490234-7.4785156l1.9326172-2.0048828  c2.1259766,0.1933594,4.2509766-0.5576172,5.7695312-2.0742188c1.59375-1.5947266,2.3388672-3.8183594,2.0458984-6.0371094  L39.6679688,66.3300781z M32.3466797,71.6738281c0.3603516,1.7294922-0.1669922,3.5048828-1.4111328,4.75  c-1.1875,1.1875-2.8867188,1.7304688-4.5595703,1.4453125c-0.3251953-0.0498047-0.6582031,0.0537109-0.8867188,0.2919922  l-2.4072266,2.4980469c-0.0830078,0.0859375-0.1503906,0.1865234-0.1972656,0.2958984l-2.7353516,6.2958984l-7.3662109-7.3662109  l6.4462891-2.5380859c0.1230469-0.0488281,0.2363281-0.1210938,0.3310547-0.2138672l2.3466797-2.2822266  c0.25-0.2431641,0.3554688-0.6005859,0.2773438-0.9404297c-0.4052734-1.7636719,0.1123047-3.5771484,1.3857422-4.8515625  c1.2958984-1.2949219,3.2109375-1.8105469,4.9921875-1.3515625c0.3359375,0.0849609,0.6962891-0.0078125,0.9482422-0.2509766  l5.8837891-5.7226562c0.2216797-0.2158203,0.3310547-0.5214844,0.296875-0.8291016  c-0.1357422-1.1943359,0.2617188-2.3535156,1.0898438-3.1806641c0.8613281-0.8613281,2.0595703-1.2568359,3.2910156-1.0810547  c0.3085938,0.0449219,0.6181641-0.0585938,0.8408203-0.2773438l7.1357422-7.0117188  c0.1787109-0.1757812,0.2851562-0.4130859,0.2978516-0.6640625c0.0722656-1.4794922,1.2412109-2.6279297,2.71875-2.6728516  c0.2529297-0.0078125,0.4941406-0.1113281,0.6738281-0.2890625l10.5429688-10.4433594  c0.2148438-0.2138672,0.3222656-0.5136719,0.2900391-0.8154297c-0.1064453-1.0195312,0.2363281-2.0087891,0.9404297-2.7128906  c0.7324219-0.7333984,1.7568359-1.0703125,2.8085938-0.9316406c0.3046875,0.0429688,0.6103516-0.0605469,0.8291016-0.2744141  l4.1005859-3.9882812C71.4521484,26.3652344,71.5625,26.09375,71.5527344,25.8125  c-0.0244141-0.765625,0.2548828-1.4804688,0.7871094-2.0126953c0.5488281-0.5498047,1.2832031-0.8222656,2.0869141-0.7802734  c0.2666016,0.0175781,0.5595703-0.0878906,0.7607422-0.2871094l10.6582031-10.5371094  c0.2871094-0.2753906,0.7529297-0.2714844,1.0361328,0.0117188l0.9033203,0.9033203  c0.2822266,0.2822266,0.2880859,0.7480469,0.0214844,1.0253906L77.2626953,24.8417969  c-0.1953125,0.1992188-0.2998047,0.4716797-0.2861328,0.7509766c0.0390625,0.7861328-0.2392578,1.5175781-0.7832031,2.0605469  c-0.5214844,0.5224609-1.1748047,0.8115234-1.9638672,0.7929688c-0.2949219-0.0048828-0.5419922,0.1064453-0.734375,0.3066406  l-4.0439453,4.1972656c-0.2060547,0.2128906-0.3066406,0.5078125-0.2744141,0.8027344  c0.1123047,1.0244141-0.2294922,2.0185547-0.9384766,2.7275391C67.5615234,37.1552734,66.6152344,37.5,65.6328125,37.4316406  c-0.2880859-0.0234375-0.5791016,0.0859375-0.7851562,0.2949219l-10.625,10.7646484  c-0.1611328,0.1630859-0.2617188,0.3769531-0.2832031,0.6054688c-0.1279297,1.3212891-1.1376953,2.3544922-2.4541016,2.5126953  c-0.2265625,0.0273438-0.4365234,0.1308594-0.5957031,0.2939453l-7.2412109,7.4121094  c-0.2050781,0.2099609-0.3076172,0.5-0.28125,0.7919922c0.109375,1.1679688-0.2910156,2.2998047-1.0966797,3.1054688  c-0.7832031,0.7822266-1.8447266,1.1689453-2.9648438,1.1123047c-0.2822266-0.0107422-0.5751953,0.0957031-0.7763672,0.3037109  l-5.9228516,6.1464844C32.3769531,71.0136719,32.2802734,71.3496094,32.3466797,71.6738281z"/><path d="M51.2783203,63.7685547v13.5673828c0,0.5527344,0.4472656,1,1,1s1-0.4472656,1-1V63.7685547c0-0.5527344-0.4472656-1-1-1  S51.2783203,63.2158203,51.2783203,63.7685547z"/><path d="M52.2783203,80.484375c-2.5478516,0-4.6201172,2.0712891-4.6201172,4.6171875  c0,2.5449219,2.0722656,4.6162109,4.6201172,4.6162109s4.6201172-2.0712891,4.6201172-4.6162109  C56.8984375,82.5556641,54.8261719,80.484375,52.2783203,80.484375z M52.2783203,87.7177734  c-1.4443359,0-2.6201172-1.1738281-2.6201172-2.6162109c0-1.4433594,1.1757812-2.6171875,2.6201172-2.6171875  s2.6201172,1.1738281,2.6201172,2.6171875C54.8984375,86.5439453,53.7226562,87.7177734,52.2783203,87.7177734z"/><path d="M70.9199219,69.2060547l-9.6015625-9.5927734c-0.390625-0.390625-1.0234375-0.390625-1.4140625,0  s-0.390625,1.0244141,0,1.4140625l9.6015625,9.5927734c0.1953125,0.1953125,0.4511719,0.2929688,0.7070312,0.2929688  s0.5117188-0.0976562,0.7070312-0.2929688C71.3105469,70.2294922,71.3105469,69.5957031,70.9199219,69.2060547z"/><path d="M72.4423828,72.1396484c-0.8730469,0.8720703-1.3535156,2.0322266-1.3535156,3.265625  s0.4814453,2.3925781,1.3535156,3.2646484c0.9003906,0.8994141,2.0830078,1.3486328,3.2666016,1.3486328  c1.1826172,0,2.3652344-0.4492188,3.2666016-1.3486328c0.8720703-0.8720703,1.3535156-2.03125,1.3535156-3.2646484  s-0.4804688-2.3935547-1.3535156-3.2666016C77.171875,70.3398438,74.2421875,70.3408203,72.4423828,72.1396484z   M77.5615234,77.2539062c-1.0214844,1.0214844-2.6835938,1.0205078-3.7050781,0.0009766c0,0,0,0,0-0.0009766  c-0.4951172-0.4931641-0.7675781-1.1503906-0.7675781-1.8486328c0-0.6992188,0.2724609-1.3564453,0.7675781-1.8515625  c0.5107422-0.5097656,1.1816406-0.7646484,1.8525391-0.7646484s1.3417969,0.2548828,1.8525391,0.7646484  c0.4951172,0.4951172,0.7675781,1.1523438,0.7675781,1.8515625C78.3291016,76.1035156,78.0566406,76.7607422,77.5615234,77.2539062z  "/><path d="M78.6416016,51.9941406c0-0.5527344-0.4472656-1-1-1H64.0625c-0.5527344,0-1,0.4472656-1,1s0.4472656,1,1,1h13.5791016  C78.1943359,52.9941406,78.6416016,52.546875,78.6416016,51.9941406z"/><path d="M85.4140625,47.3769531c-2.5478516,0-4.6201172,2.0712891-4.6201172,4.6171875s2.0722656,4.6171875,4.6201172,4.6171875  s4.6201172-2.0712891,4.6201172-4.6171875S87.9619141,47.3769531,85.4140625,47.3769531z M85.4140625,54.6113281  c-1.4443359,0-2.6201172-1.1738281-2.6201172-2.6171875s1.1757812-2.6171875,2.6201172-2.6171875  s2.6201172,1.1738281,2.6201172,2.6171875S86.8583984,54.6113281,85.4140625,54.6113281z"/><path d="M47.0283203,65.4501953c-0.5117188-0.2021484-1.09375,0.0527344-1.2949219,0.5683594l-0.5449219,1.3974609  c-0.2001953,0.5146484,0.0537109,1.0947266,0.5683594,1.2949219c0.1191406,0.046875,0.2421875,0.0683594,0.3632812,0.0683594  c0.3994141,0,0.7773438-0.2412109,0.9316406-0.6367188l0.5449219-1.3974609  C47.796875,66.2304688,47.5429688,65.6503906,47.0283203,65.4501953z"/><path d="M45.0078125,70.6289062c-0.5126953-0.2001953-1.09375,0.0527344-1.2949219,0.5683594l-1.1064453,2.8359375  c-0.2011719,0.5146484,0.0537109,1.09375,0.5683594,1.2949219c0.1191406,0.046875,0.2421875,0.0683594,0.3632812,0.0683594  c0.3994141,0,0.7773438-0.2412109,0.9316406-0.6367188l1.1064453-2.8359375  C45.7773438,71.4091797,45.5224609,70.8300781,45.0078125,70.6289062z"/><path d="M42.4267578,77.2451172c-0.5107422-0.2011719-1.09375,0.0527344-1.2949219,0.5683594l-1.1064453,2.8359375  c-0.2011719,0.5146484,0.0537109,1.09375,0.5683594,1.2949219c0.1191406,0.046875,0.2421875,0.0683594,0.3632812,0.0683594  c0.3994141,0,0.7773438-0.2412109,0.9316406-0.6367188l1.1064453-2.8359375  C43.1962891,78.0253906,42.9414062,77.4462891,42.4267578,77.2451172z"/><path d="M39.8466797,83.8613281c-0.5166016-0.2021484-1.0947266,0.0537109-1.2958984,0.5673828l-0.5458984,1.3974609  c-0.2011719,0.5146484,0.0537109,1.0947266,0.5673828,1.2958984c0.1201172,0.046875,0.2431641,0.0683594,0.3642578,0.0683594  c0.3994141,0,0.7773438-0.2412109,0.9316406-0.6357422l0.5458984-1.3974609  C40.6152344,84.6425781,40.3603516,84.0625,39.8466797,83.8613281z"/><path d="M55.4150391,59.1318359c-0.5058594,0.2216797-0.7353516,0.8115234-0.5126953,1.3173828l0.6035156,1.3730469  c0.1640625,0.375,0.53125,0.5976562,0.9160156,0.5976562c0.1337891,0,0.2705078-0.0273438,0.4013672-0.0849609  c0.5058594-0.2216797,0.7353516-0.8115234,0.5126953-1.3173828l-0.6035156-1.3730469  C56.5107422,59.1396484,55.921875,58.9082031,55.4150391,59.1318359z"/><path d="M62.9482422,73.7900391l-1.203125-2.7373047c-0.2207031-0.5048828-0.8105469-0.7363281-1.3173828-0.5126953  c-0.5058594,0.2216797-0.7353516,0.8115234-0.5126953,1.3173828l1.203125,2.7373047  c0.1640625,0.375,0.53125,0.5976562,0.9160156,0.5976562c0.1337891,0,0.2705078-0.0273438,0.4013672-0.0849609  C62.9414062,74.8857422,63.1708984,74.2958984,62.9482422,73.7900391z"/><path d="M65.7548828,80.1757812l-1.2021484-2.7363281c-0.2226562-0.5058594-0.8115234-0.734375-1.3183594-0.5136719  c-0.5058594,0.2226562-0.7353516,0.8125-0.5136719,1.3183594l1.2021484,2.7363281  c0.1650391,0.375,0.5322266,0.5976562,0.9169922,0.5976562c0.1337891,0,0.2705078-0.0273438,0.4013672-0.0839844  C65.7470703,81.2714844,65.9765625,80.6816406,65.7548828,80.1757812z"/><path d="M60.1425781,67.4042969l-1.2021484-2.7373047c-0.2226562-0.5048828-0.8105469-0.7324219-1.3183594-0.5136719  c-0.5058594,0.2226562-0.7353516,0.8125-0.5136719,1.3183594l1.2021484,2.7373047  c0.1650391,0.375,0.5322266,0.5976562,0.9169922,0.5976562c0.1337891,0,0.2705078-0.0273438,0.4013672-0.0839844  C60.1347656,68.5,60.3642578,67.9101562,60.1425781,67.4042969z"/><path d="M67.3574219,83.8251953c-0.2216797-0.5048828-0.8095703-0.7363281-1.3173828-0.5126953  c-0.5058594,0.2216797-0.7353516,0.8115234-0.5126953,1.3173828l0.6035156,1.3730469  c0.1640625,0.375,0.53125,0.5976562,0.9160156,0.5976562c0.1337891,0,0.2705078-0.0273438,0.4013672-0.0849609  c0.5058594-0.2216797,0.7353516-0.8115234,0.5126953-1.3173828L67.3574219,83.8251953z"/><path d="M60.8417969,54.2568359c-0.5136719-0.203125-1.0947266,0.0546875-1.2939453,0.5693359  c-0.2001953,0.5146484,0.0546875,1.09375,0.5693359,1.2939453l1.3974609,0.5439453  c0.1191406,0.046875,0.2412109,0.0683594,0.3623047,0.0683594c0.4003906,0,0.7783203-0.2421875,0.9316406-0.6376953  c0.2001953-0.5146484-0.0546875-1.09375-0.5693359-1.2939453L60.8417969,54.2568359z"/><path d="M72.4609375,58.7822266c-0.5126953-0.203125-1.09375,0.0546875-1.2949219,0.5683594  c-0.2001953,0.5146484,0.0537109,1.0947266,0.5683594,1.2949219l2.7880859,1.0859375  c0.1191406,0.046875,0.2421875,0.0683594,0.3632812,0.0683594c0.4003906,0,0.7773438-0.2421875,0.9316406-0.6367188  c0.2001953-0.5146484-0.0537109-1.0947266-0.5683594-1.2949219L72.4609375,58.7822266z"/><path d="M81.7529297,62.4013672l-2.7880859-1.0859375c-0.5126953-0.2021484-1.09375,0.0546875-1.2949219,0.5683594  c-0.2001953,0.5146484,0.0537109,1.0947266,0.5683594,1.2949219l2.7880859,1.0859375  c0.1191406,0.046875,0.2421875,0.0683594,0.3632812,0.0683594c0.4003906,0,0.7773438-0.2421875,0.9316406-0.6367188  C82.5214844,63.1816406,82.2675781,62.6015625,81.7529297,62.4013672z"/><path d="M65.9570312,56.2490234c-0.5126953-0.2021484-1.09375,0.0527344-1.2949219,0.5683594  c-0.2001953,0.5146484,0.0537109,1.0947266,0.5683594,1.2949219l2.7871094,1.0859375  c0.1191406,0.046875,0.2421875,0.0683594,0.3632812,0.0683594c0.4003906,0,0.7773438-0.2412109,0.9316406-0.6367188  c0.2001953-0.5146484-0.0537109-1.0947266-0.5683594-1.2949219L65.9570312,56.2490234z"/><path d="M86.8671875,64.3935547l-1.3974609-0.5449219c-0.5117188-0.2011719-1.09375,0.0527344-1.2949219,0.5683594  c-0.2001953,0.5146484,0.0537109,1.0947266,0.5683594,1.2949219l1.3974609,0.5449219  c0.1191406,0.046875,0.2421875,0.0683594,0.3632812,0.0683594c0.3994141,0,0.7773438-0.2412109,0.9316406-0.6367188  C87.6357422,65.1738281,87.3818359,64.59375,86.8671875,64.3935547z"/><path d="M67.2558594,46.4248047c0.1337891,0,0.2695312-0.0273438,0.4003906-0.0839844l1.3740234-0.6025391  c0.5058594-0.2216797,0.7363281-0.8115234,0.5146484-1.3173828c-0.2216797-0.5048828-0.8085938-0.7333984-1.3173828-0.5146484  l-1.3740234,0.6025391c-0.5058594,0.2216797-0.7363281,0.8115234-0.5146484,1.3173828  C66.5039062,46.2011719,66.8701172,46.4248047,67.2558594,46.4248047z"/><path d="M72.1650391,44.2714844c0.1337891,0,0.2695312-0.0273438,0.4003906-0.0839844l2.6523438-1.1630859  c0.5058594-0.2216797,0.7363281-0.8115234,0.5146484-1.3173828c-0.2216797-0.5039062-0.8076172-0.7333984-1.3173828-0.5146484  l-2.6523438,1.1630859c-0.5058594,0.2216797-0.7363281,0.8115234-0.5146484,1.3173828  C71.4130859,44.0478516,71.7792969,44.2714844,72.1650391,44.2714844z"/><path d="M81.40625,40.3095703c0.5048828-0.2226562,0.7353516-0.8125,0.5136719-1.3183594  c-0.2216797-0.5029297-0.8095703-0.7324219-1.3183594-0.5136719l-2.6523438,1.1640625  c-0.5048828,0.2226562-0.7353516,0.8125-0.5136719,1.3183594c0.1650391,0.3740234,0.53125,0.5976562,0.9169922,0.5976562  c0.1337891,0,0.2705078-0.0273438,0.4013672-0.0839844L81.40625,40.3095703z"/><path d="M85.5126953,36.3242188l-1.3740234,0.6025391c-0.5058594,0.2216797-0.7363281,0.8115234-0.5146484,1.3173828  c0.1650391,0.375,0.53125,0.5986328,0.9169922,0.5986328c0.1337891,0,0.2695312-0.0273438,0.4003906-0.0839844l1.3740234-0.6025391  c0.5058594-0.2216797,0.7363281-0.8115234,0.5146484-1.3173828C86.6083984,36.3339844,86.0224609,36.1044922,85.5126953,36.3242188z  "/><path d="M46.8681641,22.2363281v13.5556641c0,0.5527344,0.4472656,1,1,1s1-0.4472656,1-1V22.2363281c0-0.5527344-0.4472656-1-1-1  S46.8681641,21.6835938,46.8681641,22.2363281z"/><path d="M52.4882812,14.4785156c0-2.5439453-2.0722656-4.6142578-4.6201172-4.6142578s-4.6201172,2.0703125-4.6201172,4.6142578  s2.0722656,4.6132812,4.6201172,4.6132812S52.4882812,17.0224609,52.4882812,14.4785156z M47.8681641,17.0917969  c-1.4443359,0-2.6201172-1.171875-2.6201172-2.6132812s1.1757812-2.6142578,2.6201172-2.6142578  s2.6201172,1.1728516,2.6201172,2.6142578S49.3125,17.0917969,47.8681641,17.0917969z"/><path d="M39.5351562,40.2382812c0.2558594,0,0.5126953-0.0976562,0.7080078-0.2939453  c0.3896484-0.390625,0.3896484-1.0234375-0.0019531-1.4140625l-9.6015625-9.5859375  c-0.3886719-0.3886719-1.0234375-0.390625-1.4140625,0.0019531c-0.3896484,0.390625-0.3896484,1.0234375,0.0019531,1.4140625  l9.6015625,9.5859375C39.0234375,40.140625,39.2792969,40.2382812,39.5351562,40.2382812z"/><path d="M27.7041016,20.9033203c-1.8007812-1.796875-4.7324219-1.7958984-6.53125,0  c-0.8740234,0.8720703-1.3544922,2.0302734-1.3544922,3.2636719c0,1.2324219,0.4804688,2.390625,1.3535156,3.2626953  c0.9003906,0.8984375,2.0830078,1.3476562,3.2666016,1.3476562c1.1826172,0,2.3652344-0.4492188,3.265625-1.3476562  c0.8740234-0.8720703,1.3544922-2.0302734,1.3544922-3.2626953C29.0585938,22.9335938,28.578125,21.7753906,27.7041016,20.9033203z   M26.2919922,26.0136719c-1.0234375,1.0214844-2.6855469,1.0195312-3.7070312,0  c-0.4941406-0.4931641-0.7666016-1.1494141-0.7666016-1.8466797c0-0.6982422,0.2724609-1.3544922,0.7675781-1.8476562  c0.5107422-0.5107422,1.1806641-0.765625,1.8525391-0.765625c0.6708984,0,1.3417969,0.2558594,1.8535156,0.765625  c0.4941406,0.4931641,0.7666016,1.1494141,0.7666016,1.8476562C27.0585938,24.8642578,26.7861328,25.5205078,26.2919922,26.0136719z  "/><path d="M37.0839844,47.5566406c0-0.5527344-0.4472656-1-1-1H22.5048828c-0.5527344,0-1,0.4472656-1,1s0.4472656,1,1,1h13.5791016  C36.6367188,48.5566406,37.0839844,48.109375,37.0839844,47.5566406z"/><path d="M19.3535156,47.5566406c0-2.5439453-2.0722656-4.6142578-4.6201172-4.6142578s-4.6201172,2.0703125-4.6201172,4.6142578  s2.0722656,4.6132812,4.6201172,4.6132812S19.3535156,50.1005859,19.3535156,47.5566406z M14.7333984,50.1699219  c-1.4443359,0-2.6201172-1.171875-2.6201172-2.6132812s1.1757812-2.6142578,2.6201172-2.6142578  s2.6201172,1.1728516,2.6201172,2.6142578S16.1777344,50.1699219,14.7333984,50.1699219z"/><path d="M53.1191406,34.1123047c0.1191406,0.046875,0.2421875,0.0683594,0.3632812,0.0683594  c0.3994141,0,0.7773438-0.2412109,0.9316406-0.6367188l0.5449219-1.3974609  c0.2001953-0.5146484-0.0537109-1.0947266-0.5683594-1.2949219c-0.5117188-0.2021484-1.09375,0.0527344-1.2949219,0.5683594  l-0.5449219,1.3974609C52.3505859,33.3320312,52.6044922,33.9121094,53.1191406,34.1123047z"/><path d="M58.0830078,22.3974609c0.3994141,0,0.7773438-0.2412109,0.9316406-0.6357422l1.1064453-2.8330078  c0.2011719-0.5146484-0.0537109-1.0947266-0.5673828-1.2958984c-0.515625-0.2021484-1.0947266,0.0527344-1.2958984,0.5673828  l-1.1064453,2.8330078c-0.2011719,0.5146484,0.0537109,1.0947266,0.5673828,1.2958984  C57.8388672,22.3759766,57.9619141,22.3974609,58.0830078,22.3974609z"/><path d="M55.5019531,29.0068359c0.3994141,0,0.7773438-0.2412109,0.9316406-0.6357422l1.1064453-2.8330078  c0.2011719-0.5146484-0.0537109-1.0947266-0.5673828-1.2958984c-0.5166016-0.2021484-1.0947266,0.0537109-1.2958984,0.5673828  l-1.1064453,2.8330078c-0.2011719,0.5146484,0.0537109,1.0947266,0.5673828,1.2958984  C55.2578125,28.9853516,55.3808594,29.0068359,55.5019531,29.0068359z"/><path d="M60.6640625,15.7871094c0.3994141,0,0.7773438-0.2412109,0.9316406-0.6357422l0.5458984-1.3974609  c0.2011719-0.5146484-0.0537109-1.0947266-0.5673828-1.2958984c-0.5175781-0.2001953-1.0947266,0.0527344-1.2958984,0.5673828  l-0.5458984,1.3974609C59.53125,14.9375,59.7861328,15.5175781,60.2998047,15.71875  C60.4199219,15.765625,60.5429688,15.7871094,60.6640625,15.7871094z"/><path d="M43.4150391,39.9130859c0.1640625,0.375,0.53125,0.5976562,0.9160156,0.5976562  c0.1337891,0,0.2705078-0.0273438,0.4013672-0.0849609c0.5058594-0.2216797,0.7353516-0.8115234,0.5126953-1.3173828  l-0.6035156-1.3730469C44.4199219,37.2294922,43.8320312,37,43.3242188,37.2226562  c-0.5058594,0.2216797-0.7353516,0.8115234-0.5126953,1.3173828L43.4150391,39.9130859z"/><path d="M37.1992188,25.7802734l1.203125,2.734375c0.1640625,0.375,0.53125,0.5976562,0.9160156,0.5976562  c0.1337891,0,0.2705078-0.0273438,0.4013672-0.0849609c0.5058594-0.2216797,0.7353516-0.8125,0.5126953-1.3173828  l-1.203125-2.734375c-0.2216797-0.5058594-0.8105469-0.7353516-1.3173828-0.5126953  C37.2060547,24.6845703,36.9765625,25.2753906,37.1992188,25.7802734z"/><path d="M42.1240234,35.4921875c0.1337891,0,0.2705078-0.0273438,0.4013672-0.0849609  c0.5058594-0.2216797,0.7353516-0.8115234,0.5126953-1.3173828l-1.2021484-2.734375  c-0.2207031-0.5048828-0.8105469-0.7353516-1.3173828-0.5126953c-0.5058594,0.2216797-0.7353516,0.8115234-0.5126953,1.3173828  l1.2021484,2.734375C41.3720703,35.2695312,41.7392578,35.4921875,42.1240234,35.4921875z"/><path d="M36.2236328,18.5957031c-0.2216797-0.5048828-0.8095703-0.7373047-1.3173828-0.5126953  c-0.5058594,0.2216797-0.7353516,0.8125-0.5126953,1.3173828l1.203125,2.734375  c0.1640625,0.375,0.53125,0.5976562,0.9160156,0.5976562c0.1337891,0,0.2705078-0.0273438,0.4013672-0.0849609  c0.5058594-0.2216797,0.7353516-0.8125,0.5126953-1.3173828L36.2236328,18.5957031z"/><path d="M34.0166016,13.5771484c-0.2207031-0.5048828-0.8095703-0.7353516-1.3173828-0.5126953  c-0.5058594,0.2216797-0.7353516,0.8115234-0.5126953,1.3173828l0.6035156,1.3730469  c0.1640625,0.375,0.53125,0.5976562,0.9160156,0.5976562c0.1337891,0,0.2705078-0.0273438,0.4013672-0.0849609  c0.5058594-0.2216797,0.7353516-0.8115234,0.5126953-1.3173828L34.0166016,13.5771484z"/><path d="M37.9072266,44.7529297l1.3974609,0.5439453c0.1191406,0.046875,0.2412109,0.0683594,0.3623047,0.0683594  c0.4003906,0,0.7783203-0.2421875,0.9316406-0.6376953c0.2001953-0.5146484-0.0546875-1.09375-0.5693359-1.2939453  l-1.3974609-0.5439453c-0.5126953-0.203125-1.0947266,0.0546875-1.2939453,0.5693359  C37.1376953,43.9736328,37.3925781,44.5527344,37.9072266,44.7529297z"/><path d="M24.3300781,38.3964844c-0.2001953,0.5146484,0.0546875,1.09375,0.5693359,1.2939453l2.7871094,1.0849609  c0.1191406,0.046875,0.2412109,0.0683594,0.3623047,0.0683594c0.4003906,0,0.7783203-0.2421875,0.9316406-0.6376953  c0.2001953-0.5146484-0.0546875-1.09375-0.5693359-1.2939453l-2.7871094-1.0849609  C25.1113281,37.625,24.5292969,37.8808594,24.3300781,38.3964844z"/><path d="M34.1904297,43.3066406C34.3095703,43.3535156,34.4316406,43.375,34.5527344,43.375  c0.4003906,0,0.7783203-0.2421875,0.9316406-0.6376953c0.2001953-0.5146484-0.0546875-1.09375-0.5693359-1.2939453  l-2.7871094-1.0849609c-0.5126953-0.2011719-1.0947266,0.0537109-1.2939453,0.5693359  c-0.2001953,0.5146484,0.0546875,1.09375,0.5693359,1.2939453L34.1904297,43.3066406z"/><path d="M17.8261719,35.8652344c-0.2001953,0.5146484,0.0546875,1.09375,0.5693359,1.2939453l2.7871094,1.0849609  c0.1191406,0.046875,0.2412109,0.0683594,0.3623047,0.0683594c0.4003906,0,0.7783203-0.2421875,0.9316406-0.6376953  c0.2001953-0.5146484-0.0546875-1.09375-0.5693359-1.2939453l-2.7871094-1.0849609  C18.6074219,35.09375,18.0263672,35.3496094,17.8261719,35.8652344z"/><path d="M14.6787109,35.7128906c0.1191406,0.046875,0.2412109,0.0683594,0.3623047,0.0683594  c0.4003906,0,0.7783203-0.2421875,0.9316406-0.6376953c0.2001953-0.5146484-0.0546875-1.09375-0.5693359-1.2939453  l-1.3984375-0.5439453c-0.5136719-0.2011719-1.0947266,0.0546875-1.2939453,0.5693359  c-0.2001953,0.5146484,0.0546875,1.09375,0.5693359,1.2939453L14.6787109,35.7128906z"/><path d="M32.4902344,53.2041016l-1.3730469,0.6025391c-0.5058594,0.2226562-0.7363281,0.8125-0.5146484,1.3173828  c0.1650391,0.375,0.53125,0.5986328,0.9169922,0.5986328c0.1337891,0,0.2705078-0.0273438,0.4003906-0.0839844l1.3730469-0.6025391  c0.5058594-0.2226562,0.7363281-0.8125,0.5146484-1.3173828S32.9960938,52.9853516,32.4902344,53.2041016z"/><path d="M27.5810547,55.3554688l-2.6513672,1.1621094c-0.5058594,0.2216797-0.7363281,0.8115234-0.5146484,1.3173828  c0.1650391,0.375,0.53125,0.5986328,0.9169922,0.5986328c0.1337891,0,0.2695312-0.0273438,0.4003906-0.0839844L28.3837891,57.1875  c0.5058594-0.2216797,0.7363281-0.8115234,0.5146484-1.3173828C28.6767578,55.3652344,28.0888672,55.1357422,27.5810547,55.3554688z  "/><path d="M19.1445312,61.1455078c0.1337891,0,0.2695312-0.0273438,0.4003906-0.0839844l2.6513672-1.1621094  c0.5058594-0.2216797,0.7363281-0.8115234,0.5146484-1.3173828c-0.2216797-0.5048828-0.8085938-0.7324219-1.3173828-0.5146484  l-2.6513672,1.1621094c-0.5058594,0.2216797-0.7363281,0.8115234-0.5146484,1.3173828  C18.3925781,60.921875,18.7587891,61.1455078,19.1445312,61.1455078z"/><path d="M15.2060547,60.7792969l-1.3740234,0.6025391c-0.5058594,0.2216797-0.7363281,0.8115234-0.5146484,1.3173828  c0.1650391,0.375,0.53125,0.5986328,0.9169922,0.5986328c0.1337891,0,0.2695312-0.0273438,0.4003906-0.0839844l1.3740234-0.6025391  c0.5058594-0.2216797,0.7363281-0.8115234,0.5146484-1.3173828C16.3017578,60.7900391,15.7158203,60.5605469,15.2060547,60.7792969z  "/><text x="0" y="115" fill="#000000" font-size="5px" font-weight="bold" font-family="'Helvetica Neue', Helvetica, Arial-Unicode, Arial, Sans-serif">Created by Made x Made</text><text x="0" y="120" fill="#000000" font-size="5px" font-weight="bold" font-family="'Helvetica Neue', Helvetica, Arial-Unicode, Arial, Sans-serif">from the Noun Project</text></svg>